# xmcd
#
# Track frame offsets:
#	182
#	14207
#	32957
#	49007
#	67157
#	80582
#	95182
#	110620
#	135182
#	146207
#	156857
#	174857
#	183357
#	211195
#
# Disc length: 3159 seconds
#
# Revision: 1
# Processed by: cddbd v1.4PL0 Copyright (c) Steve Scherf et al.
# Submitted via: audiograbber 1.80
#
DISCID=cb0c550e
DTITLE=Chr. Willisohn and H. Wiedermann - The Real Blues'n Boogie Buch
DYEAR=1900
DGENRE=
TTITLE0=Go Str8 4 it
TTITLE1=Boogie Woogie Stomp*
TTITLE2=Quiet Blues
TTITLE3=Honky Tonk Train Blues**
TTITLE4=My Own Blues
TTITLE5=Bearfootin'
TTITLE6=Beebo's Boogie
TTITLE7=After Hours
TTITLE8=Pearl River Blues
TTITLE9=Can TheCiySound
TTITLE10=Just a Blues
TTITLE11=Tribute to Jay McShann
TTITLE12=4 Meade
TTITLE13=Believe It or Not
EXTD=1991/1995 by Edition MAWI
EXTT0=
EXTT1=* by Albert Ammons
EXTT2=
EXTT3=** by Shapiro Bernstein and Co.
EXTT4=
EXTT5=
EXTT6=
EXTT7=
EXTT8=
EXTT9=
EXTT10=
EXTT11=
EXTT12=
EXTT13=
PLAYORDER=
